<?xml version="1.0" encoding="utf-8"?>
<!-- Generator: Adobe Illustrator 15.1.0, SVG Export Plug-In  -->
<!DOCTYPE svg PUBLIC "-//W3C//DTD SVG 1.1//EN" "http://www.w3.org/Graphics/SVG/1.1/DTD/svg11.dtd" [
	<!ENTITY ns_flows "http://ns.adobe.com/Flows/1.0/">
]>
<svg version="1.1"
	 xmlns="http://www.w3.org/2000/svg" xmlns:xlink="http://www.w3.org/1999/xlink" xmlns:a="http://ns.adobe.com/AdobeSVGViewerExtensions/3.0/"
	 x="0px" y="0px" width="38px" height="32px" viewBox="-8.396 -1.667 38 32" enable-background="new -8.396 -1.667 38 32"
	 xml:space="preserve">
<defs>
</defs>
<path fill="#80AFC4" d="M7.029,3.649l0.813,0.355C7.278,4.35,7.023,4.688,7.088,5.009c0.066,0.333,0.37,0.619,0.904,0.853
	c0.492,0.215,1.071,0.331,1.772,0.355c0.69,0.024,1.756-0.17,3.168-0.578c0.351-0.102,0.625-0.161,0.816-0.175
	c0.187-0.015,0.338,0.006,0.475,0.066c0.094,0.041,0.382,0.166-0.34,0.481c-0.469,0.205-0.955,0.289-1.443,0.25
	c-0.386-0.03-0.778,0.041-1,0.182L11.006,6.72c-0.189,0.121-0.228,0.275-0.103,0.41c0.125,0.136,0.397,0.234,0.725,0.264
	c1.071,0.096,2.128-0.027,3.145-0.365l1.098,0.479c0.391,0.17,1.023,0.17,1.413,0c0.39-0.17,0.39-0.446,0-0.617l-1.136-0.496
	c0.498-0.317,0.762-0.638,0.779-0.955c0.022-0.371-0.277-0.695-0.891-0.962c-0.437-0.191-0.936-0.309-1.48-0.351
	c-0.546-0.042-1.063-0.019-1.537,0.07c-0.467,0.087-1.178,0.265-2.108,0.525c-0.405,0.112-0.68,0.169-0.817,0.17
	c-0.132,0.001-0.25-0.02-0.341-0.06C9.428,4.692,9.7,4.514,9.986,4.389c0.354-0.155,0.733-0.228,1.124-0.218
	c0.393,0.01,0.763-0.081,0.945-0.233l0.251-0.21c0.159-0.133,0.151-0.292-0.022-0.421s-0.486-0.211-0.829-0.216
	C10.71,3.08,9.992,3.18,9.269,3.394L8.441,3.032c-0.391-0.17-1.023-0.17-1.413,0C6.639,3.203,6.639,3.479,7.029,3.649z"/>
<path fill="#80AFC4" d="M24.212,8.053c0.066-0.275,0.1-0.555,0.1-0.839V6.317c0-1.793-1.338-3.432-3.769-4.616
	C18.29,0.604,15.312,0,12.156,0S6.022,0.604,3.769,1.702C1.339,2.885,0,4.524,0,6.317v0.897c0,1.768,1.303,3.386,3.669,4.565
	c-0.065,0.274-0.108,0.615-0.108,0.835v0.164C1.263,13.953,0,15.549,0,17.29v0.897c0,1.209,0.609,2.348,1.751,3.324
	c-0.155,0.412-0.235,0.839-0.235,1.273v0.897c0,1.793,1.338,3.433,3.769,4.616C7.539,29.396,10.517,30,13.672,30
	s6.134-0.604,8.388-1.701c2.43-1.184,3.769-2.823,3.769-4.616v-0.897c0-1.208-0.608-2.347-1.751-3.323
	c0.154-0.413,0.234-0.839,0.234-1.274v-0.164c2.299-1.175,3.561-2.771,3.561-4.512v-0.897C27.872,10.849,26.573,9.232,24.212,8.053z
	 M1.699,5.558C2.051,4.663,3.01,3.794,4.447,3.094c2.046-0.997,4.784-1.545,7.709-1.545c2.925,0,5.663,0.549,7.708,1.545
	c1.438,0.7,2.396,1.569,2.749,2.464c-1.244,2.163-5.565,3.741-10.458,3.741S2.943,7.721,1.699,5.558z M1.699,16.531
	c0.286-0.729,0.976-1.438,1.995-2.055c0.393,1.412,1.649,2.684,3.636,3.65c2.253,1.098,5.232,1.702,8.387,1.702
	c0.309,0,0.614-0.007,0.919-0.019c-1.377,0.296-2.898,0.461-4.479,0.461C7.264,20.271,2.943,18.694,1.699,16.531z M24.13,22.026
	c-1.244,2.163-5.566,3.741-10.458,3.741c-4.25,0-8.066-1.191-9.811-2.922c2.242,1.069,5.182,1.658,8.295,1.658
	c3.155,0,6.134-0.604,8.387-1.701c1.167-0.568,2.082-1.242,2.718-1.988C23.672,21.203,23.966,21.612,24.13,22.026z M15.717,15.597
	c-4.271,0-8.107-1.203-9.84-2.948c1.871,0.574,4.029,0.882,6.279,0.882c3.155,0,6.134-0.604,8.387-1.701
	c1.364-0.665,2.385-1.473,3.017-2.371c1.362,0.688,2.273,1.53,2.614,2.396C24.931,14.019,20.608,15.597,15.717,15.597z"/>
</svg>
