<?xml version="1.0" encoding="utf-8"?>
<!-- Generator: Adobe Illustrator 15.1.0, SVG Export Plug-In  -->
<!DOCTYPE svg PUBLIC "-//W3C//DTD SVG 1.1//EN" "http://www.w3.org/Graphics/SVG/1.1/DTD/svg11.dtd" [
	<!ENTITY ns_flows "http://ns.adobe.com/Flows/1.0/">
]>
<svg version="1.1"
	 xmlns="http://www.w3.org/2000/svg" xmlns:xlink="http://www.w3.org/1999/xlink" xmlns:a="http://ns.adobe.com/AdobeSVGViewerExtensions/3.0/"
	 x="0px" y="0px" width="50px" height="43px" viewBox="0 0 50 43" enable-background="new 0 0 50 43" xml:space="preserve">
<defs>
</defs>
<g>
	<defs>
		<rect id="SVGID_1_" width="50" height="39.348"/>
	</defs>
	<clipPath id="SVGID_2_">
		<use xlink:href="#SVGID_1_"  overflow="visible"/>
	</clipPath>
	<path clip-path="url(#SVGID_2_)" fill="#80AFC4" d="M48.336,2.214c-0.701,0-1.359,0.007-2.018,0.023V0h-0.734
		C31.322,0,26.541,3.411,24.999,5.252C23.457,3.411,18.676,0,4.414,0H3.68v2.236C3.022,2.219,2.364,2.214,1.664,2.214H0v32.35h1.664
		c17.595,0,21.186,4.035,21.698,4.784h3.302c0.557-0.784,4.218-4.784,21.673-4.784H50V2.214H48.336z M23.899,33.104
		c-2.457-1.812-7.611-3.914-18.383-4.054V1.849c15.087,0.194,18.001,4.327,18.383,5V33.104z M44.484,29.051
		c-10.772,0.14-15.928,2.24-18.385,4.054V6.857c0.416-0.736,3.412-4.813,18.385-5.007V29.051z"/>
</g>
</svg>
